<svg xmlns="http://www.w3.org/2000/svg" xmlns:xlink="http://www.w3.org/1999/xlink" viewBox="-6 -6 48 48"><defs><path id="a" d="M18.1 8h-.3l-.2.1H17l-.2.1h-.3l-.2.1-.3.1-.2.1-.2.1-.3.1-.1.1-.3.1-.1.1-.2.2-.2.1-.2.2-.2.2-.2.2-.2.2-.1.2-.2.3-.1.2h-.1l-.1.2-.1.1-.1.2-.1.2-.1.2v.2l-.1.1-.1.2v.2l-.1.3-.1.3v.8h-.1v.1l-.1.1v.1l-.1.1v.6l-.2.1v.2l-.1.1v.2l-.1.1v.7l.1.1h-.1l-.2.1-.2.2-.1.2-.2.1-.1.1v.1l-.2.1-.2.2-.1.2-.2.2-.1.2-.1.2-.2.2-.1.2-.1.2v.2l-.1.2-.1.2v.3l-.1.1v.2l-.1.2v1.1l.1.3v.3h.1v.2h.1v.1h.2l.1-.1h.2l.1-.1.1-.1.1-.1.1-.1.1-.1.1-.1.1-.1.1-.1v-.1l.1-.2v-.1h.1v-.1h.1v.3l.1.2.1.1.1.2v.2l.1.1.1.2.1.1.1.2v.1l.2.2.2.2.2.2.1.1.2.1.2.2.1.1h-.4l-.1.1H12l-.1.1h-.1v.1h-.2l-.1.1-.1.1v.1h-.1v.1l-.1.1v.9l.1.1v.1l.1.1.1.1.1.1h.2l.1.1.2.1.2.1h.2l.2.1h.2l.2.1h.5l.4.1h1.6l.1-.1h.6l.2-.1h.2l.3-.2h.1l.2-.1.2-.1.2-.1.2-.1.1-.1h.3l.3.1h.5l.1.1.3.1.3.1.3.1h.2l.3.1h.3l.3.1h2.3l.3-.1h.2l.2-.1h.2l.2-.1.1-.1.2-.1h.1l.1-.1.1-.1.1-.1.1-.2.1-.1v-.5h-.1v-.1l-.1-.1-.1-.1v-.1l-.2-.1-.2-.1-.2-.1-.2-.2-.4-.2h-.1l-.1-.1.2-.2.1-.1.1-.1.2-.2.1-.2.1-.2.1-.2.2-.4.1-.3.1-.2v-.1l.1-.1.2.2.1.2v.2l.1.1.1.1.1.1.1.1v.1h.1l.1.1h.4v-.1h.1v-.1l.1-.1v-.1h.1v-.2l.1-.2v-.3l.1-.2v-.9l-.1-.3v-.3l-.1-.2v-.2l-.1-.1-.1-.2v-.2l-.1-.2-.2-.3-.1-.2-.1-.3-.1-.2-.1-.2-.1-.2-.2-.2-.3-.4v-.1h-.1v-.1l.1-.1V16l.1-.2V15l-.1-.2v-.1l-.1-.2-.1-.1v-.1l-.1-.1-.1-.2v-.1l-.1-.4v-.2l-.1-.2v-.3l-.1-.3v-.2l-.1-.2V12l-.1-.2-.1-.2v-.2l-.2-.3-.1-.2-.1-.2-.1-.2-.1-.2-.2-.1-.1-.2-.1-.2-.2-.1-.1-.2-.2-.1-.1-.1-.1-.1-.2-.1-.3-.2-.2-.1-.2-.1-.3-.1-.3-.1-.2-.1-.3-.1-.3-.1h-.2l-.3-.1h-.3l-.3-.1h-.3z"/></defs><clipPath id="b"><use xlink:href="#a" overflow="visible"/></clipPath><g clip-path="url(#b)"><defs><path id="c" d="M-130-613h375V54h-375z"/></defs><clipPath id="d"><use xlink:href="#c" overflow="visible"/></clipPath><path opacity=".5" clip-path="url(#d)" d="M4 3h28v28.4H4z"/></g></svg>