<svg xmlns="http://www.w3.org/2000/svg" xmlns:xlink="http://www.w3.org/1999/xlink" viewBox="0 0 36 36"><defs><path id="a" d="M22.8 8.7H6.5v14.8h16.3z"/></defs><clipPath id="b"><use xlink:href="#a" overflow="visible"/></clipPath><g clip-path="url(#b)"><defs><path id="c" d="M-1121.6-718H365.5V366h-1487.1z"/></defs><clipPath id="d"><use xlink:href="#c" overflow="visible"/></clipPath><g clip-path="url(#d)"><defs><path id="e" d="M6.5 8.1h17.4v16.3H6.5z"/></defs><clipPath id="f"><use xlink:href="#e" overflow="visible"/></clipPath><g clip-path="url(#f)"><defs><path id="g" d="M22.1 14.3h.8c-.7-3.3-4.2-5.7-8.2-5.7-4.5 0-8.1 3-8.1 6.9 0 2.2 1.2 4.1 3.2 5.5L9 23.5l2.8-1.4c1 .2 1.8.4 2.8.4h.8c-.2-.5-.3-1.1-.3-1.7.1-3.6 3.1-6.5 7-6.5m-4.4-2.2c.6 0 1 .4 1 1s-.4 1-1 1-1.2-.4-1.2-1 .6-1 1.2-1m-5.7 2c-.6 0-1.2-.4-1.2-1s.6-1 1.2-1 1 .4 1 1-.4 1-1 1"/></defs><clipPath id="h"><use xlink:href="#g" overflow="visible"/></clipPath><g clip-path="url(#h)"><defs><path id="i" d="M6.5 8.1h17.4v16.3H6.5z"/></defs><clipPath id="j"><use xlink:href="#i" overflow="visible"/></clipPath><path opacity=".3" clip-path="url(#j)" d="M.7 2.8h27.9v26.4H.7z"/></g></g></g></g><defs><path id="k" d="M29.5 20.6c0-3.2-3.2-5.9-6.9-5.9-3.9 0-6.9 2.6-6.9 5.9 0 3.3 3 5.9 6.9 5.9.8 0 1.6-.2 2.4-.4l2.2 1.2-.6-2c1.7-1.2 2.9-2.8 2.9-4.7m-9.2-1c-.4 0-.8-.4-.8-.8s.4-.8.8-.8c.6 0 1 .4 1 .8.1.4-.4.8-1 .8m4.5 0c-.4 0-.8-.4-.8-.8s.4-.8.8-.8c.6 0 1 .4 1 .8s-.4.8-1 .8"/></defs><clipPath id="l"><use xlink:href="#k" overflow="visible"/></clipPath><g clip-path="url(#l)"><defs><path id="m" d="M-1121.6-718H365.5V366h-1487.1z"/></defs><clipPath id="n"><use xlink:href="#m" overflow="visible"/></clipPath><path opacity=".304" clip-path="url(#n)" d="M9.9 8.9h25.4v24.2H9.9z"/></g></svg>