<svg xmlns="http://www.w3.org/2000/svg" xmlns:xlink="http://www.w3.org/1999/xlink" viewBox="0 0 36 36"><defs><path id="a" d="M24.1 17.9c-.8-.2-.4-.6-.4-.6s.8-1.4-.2-2.4c-1.2-1.2-4.2.2-4.2.2-1.1.4-.8-.2-.7-1 0-1-.4-2.8-3.4-1.7-3 1-5.6 4.7-5.6 4.7C7.8 19.4 8 21.3 8 21.3c.5 4.1 4.8 5.3 8.2 5.5 3.6.3 8.4-1.2 9.9-4.4 1.5-3.1-1.2-4.3-2-4.5m-7.6 7.8c-3.6.2-6.4-1.6-6.4-4s2.9-4.3 6.4-4.4c3.6-.2 6.4 1.3 6.4 3.7.1 2.3-2.8 4.5-6.4 4.7"/></defs><clipPath id="b"><use xlink:href="#a" overflow="visible"/></clipPath><g clip-path="url(#b)"><defs><path id="c" d="M-206-613h375V54h-375z"/></defs><clipPath id="d"><use xlink:href="#c" overflow="visible"/></clipPath><path opacity=".3" clip-path="url(#d)" d="M3 7h28.6v24.8H3z"/></g><defs><path id="e" d="M15.8 18.8c-3.6.4-3.2 3.8-3.2 3.8s0 1.1 1 1.6c2.1 1.1 4.3.4 5.3-1 1.1-1.4.5-4.8-3.1-4.4m-.9 4.7c-.7.1-1.2-.3-1.2-.9 0-.6.5-1.1 1.1-1.2.8-.1 1.3.4 1.3.9 0 .6-.5 1.1-1.2 1.2m2.1-1.8c-.2.2-.5.1-.6-.1-.1-.2-.1-.5.2-.7.3-.2.5-.1.7.1 0 .2-.1.5-.3.7"/></defs><clipPath id="f"><use xlink:href="#e" overflow="visible"/></clipPath><g clip-path="url(#f)"><defs><path id="g" d="M-206-613h375V54h-375z"/></defs><clipPath id="h"><use xlink:href="#g" overflow="visible"/></clipPath><path opacity=".3" clip-path="url(#h)" d="M7.6 13.7h16.8v16H7.6z"/></g><defs><path id="i" d="M26.4 16c.4-4-3.2-3.3-3.2-3.3-.3 0-.6.3-.6.6s.3.6.6.6c2.6-.6 2 2 2 2 0 .3.3.6.6.6s.6-.2.6-.5z"/></defs><clipPath id="j"><use xlink:href="#i" overflow="visible"/></clipPath><g clip-path="url(#j)"><defs><path id="k" d="M-206-613h375V54h-375z"/></defs><clipPath id="l"><use xlink:href="#k" overflow="visible"/></clipPath><path opacity=".3" clip-path="url(#l)" d="M17.6 7.6h13.8v13.9H17.6z"/></g><defs><path id="m" d="M21.8 9.5h8v8.2h-8z"/></defs><clipPath id="n"><use xlink:href="#m" overflow="visible"/></clipPath><g clip-path="url(#n)"><defs><path id="o" d="M-206-613h375V54h-375z"/></defs><clipPath id="p"><use xlink:href="#o" overflow="visible"/></clipPath><g clip-path="url(#p)"><defs><path id="q" d="M21 9h10v9H21z"/></defs><clipPath id="r"><use xlink:href="#q" overflow="visible"/></clipPath><g clip-path="url(#r)"><defs><path id="s" d="M22.5 9.7s-.1 0 0 0c-.1 0-.1.1-.1.1-.4.1-.6.4-.6.8 0 .5.4.9.9.9 0 0 .5-.1.8-.2.3-.1 2.9-.1 4.2 2.1.7 1.6.3 2.7.3 2.8 0 0-.2.4-.2.8 0 .5.4.8.9.8.4 0 .7-.1.8-.7 1.4-4.7-1.7-6.8-4-7.4-1.4-.4-2.7-.1-3 0z"/></defs><clipPath id="t"><use xlink:href="#s" overflow="visible"/></clipPath><g clip-path="url(#t)"><defs><path id="u" d="M21 9h9v9h-9z"/></defs><clipPath id="v"><use xlink:href="#u" overflow="visible"/></clipPath><path opacity=".3" clip-path="url(#v)" d="M16.8 4.5h18v18.2h-18z"/></g></g></g></g></svg>