<svg xmlns="http://www.w3.org/2000/svg" xmlns:xlink="http://www.w3.org/1999/xlink" viewBox="0 0 24 24"><defs><path id="a" d="M18.4 4.1L4.1 18.5l1.4 1.4L19.8 5.5l-1.4-1.4zm.2 4l-3.1 3.1c.1.3.1.5.1.8 0 2-1.6 3.6-3.6 3.6-.3 0-.5 0-.8-.1L9 17.7c1 .3 2 .5 3 .5 4.8 0 10-4.5 10-6.2 0-.8-1.3-2.5-3.4-3.9zM8.5 12.7c0-.2-.1-.5-.1-.7 0-2 1.6-3.6 3.6-3.6.2 0 .5 0 .7.1l2.2-2.2c-.9-.4-1.9-.5-2.9-.5-5 0-10 4.6-10 6.2 0 .8 1.4 2.4 3.3 3.8l3.2-3.1z"/></defs><clipPath id="b"><use xlink:href="#a" overflow="visible"/></clipPath><path clip-path="url(#b)" fill="#ccc" d="M-3-.9h30v25.8H-3z"/></svg>